<svg xmlns="http://www.w3.org/2000/svg" viewBox="0 0 425.2 283.46" preserveAspectRatio="xMinYMid meet">
  <path fill="#818b91" d="M135.57 75.21v133.03h20.27V66.93c-13.63 0-20.27 8.28-20.27 8.28M47.35 231.1l4.05 15.18c.44 1.7.88 3.5 1.22 5.42l.15.04c.37-2.21.92-3.98 1.29-5.38l4.13-15.26h3.43l4.09 15.18c.48 1.77.85 3.57 1.18 5.42l.18.04a67.6 67.6 0 0 1 1.25-5.38l4.09-15.26h3.83l-7.37 26.72h-3.5l-4.13-15a84.2 84.2 0 0 1-1.36-5.64 118.8 118.8 0 0 1-1.33 5.6l-4.16 15.04h-3.5l-7.37-26.72h3.83zM95.37 231.1v3.32h-12.6v7.78h9.03v3.28h-9.03v8.92h13.19v3.43H78.93V231.1h16.44zM103.14 231.1v26.72h-3.83V231.1h3.83zM125.07 231.1v3.39h-7.44v23.33h-3.94v-23.33h-7.44v-3.39h18.82zM144.3 231.1v3.32h-12.6v7.78h9.03v3.28h-9.03v8.92h13.19v3.43h-17.03V231.1h16.44zM156.1 231.1c7 0 10.39 2.25 10.39 7.48 0 3.5-1.81 5.82-5.27 6.82l6.12 12.42h-4.2l-5.56-11.53h-5.86v11.53h-3.79V231.1h8.17zm-4.39 11.9h4.42c4.35 0 6.45-1.29 6.45-4.31 0-3.24-1.99-4.35-6.38-4.35h-4.5V243zM186.24 231.1l4.83 15.18a95.2 95.2 0 0 1 1.7 6.08c.48-1.81 1.07-3.8 1.81-6.04l4.9-15.22h5.42v26.72h-3.5v-23.03c-1.03 3.39-1.62 5.34-1.81 5.9l-5.53 17.14h-2.73l-5.49-17.14c-.41-1.33-1.03-3.28-1.81-5.9v23.03h-3.5V231.1h5.71zM214.28 231.1v26.72h-3.83V231.1h3.83zM236.21 231.1v3.39h-7.44v23.33h-3.94v-23.33h-7.44v-3.39h18.82zM256.92 231.1c6.49 0 9.73 2.29 9.73 6.74 0 2.87-1.33 4.79-4.16 5.93 3.21 1.18 4.86 3.46 4.86 6.71 0 4.86-3.35 7.33-10.06 7.33h-8.7V231.1h8.33zm-4.54 11.13h5.01c3.54 0 5.38-1.47 5.38-4.09 0-2.76-1.95-3.87-5.97-3.87h-4.42v7.96zm0 12.34h4.9c4.24 0 6.15-1.33 6.15-4.61 0-2.98-2.1-4.61-6.08-4.61h-4.97v9.22zM275.38 231.1v26.72h-3.83V231.1h3.83zM284.92 231.1v23.29h11.75v3.43h-15.59V231.1h3.84zM306.4 231.1c8.51 0 12.82 4.5 12.82 13.34 0 8.88-4.46 13.38-13.27 13.38h-6.67V231.1h7.12zm-3.28 23.29h2.54c6.71 0 9.69-2.84 9.69-9.95 0-7.04-2.95-9.99-9.51-9.99h-2.73v19.94zM326.78 231.1v16.91c0 4.72 1.58 6.89 6.04 6.89 4.53 0 6.01-2.21 6.01-6.89V231.1h3.8v17.73c0 6.19-3.46 9.43-10.02 9.43-6.34 0-9.66-3.35-9.66-9.84V231.1h3.83zM352.5 231.1l8.51 14.67a108.9 108.9 0 0 1 3.06 5.75 77.5 77.5 0 0 1-.15-5.34V231.1h3.61v26.72h-3.35l-9.62-15.99a88.96 88.96 0 0 1-3.32-6.12c.11 1.73.15 3.61.15 5.67v16.44h-3.61V231.1h4.72zM387.36 238.91c-.96-3.13-2.99-4.9-5.71-4.9-4.39 0-6.78 3.58-6.78 10.61 0 6.6 2.69 10.24 6.89 10.24 3.68 0 5.82-2.47 5.86-7h-5.67v-3.28h9.58v13.23h-3.02l-.18-2.88c-1.7 2.25-3.98 3.32-6.96 3.32-6.45 0-10.39-5.05-10.39-13.71 0-8.92 4.02-13.82 10.83-13.82 4.61 0 7.89 2.58 9.25 7.33l-3.7.86zM251.85 133.98c15.01-6.04 22.02-16.18 22.02-31.38 0-23.58-17.15-35.67-51.45-35.67h-44.04v141.3h46c35.47 0 53.2-13.06 53.2-38.79-.01-17.14-8.78-29.23-25.73-35.46zm-53.4-50.29h23.38c21.24 0 31.57 5.85 31.57 20.46 0 13.84-9.75 21.63-28.45 21.63h-26.51V83.69zm25.92 107.39h-25.92v-48.72h26.31c21.05 0 32.16 8.57 32.16 24.36 0 17.35-10.14 24.36-32.55 24.36zM316.48 142.36h26.31c21.05 0 32.16 8.57 32.16 24.36 0 17.35-10.13 24.36-32.55 24.36h-25.92v-48.72zm0-58.67h23.39c21.24 0 31.57 5.85 31.57 20.46 0 13.84-9.75 21.63-28.46 21.63h-26.5V83.69zM296.4 66.93v141.3h46c35.47 0 53.21-13.06 53.21-38.79 0-17.15-8.77-29.24-25.73-35.47 15.01-6.04 22.02-16.18 22.02-31.38 0-23.58-17.15-35.67-51.45-35.67H296.4z" class="st0"></path>
  <g id="dots">
    <path fill="#0075aa" d="M60.28 124.38a29.88 29.88 0 1 0 0-59.77 29.88 29.88 0 0 0 0 59.77"></path>
    <path fill="#3db7cc" d="M68.99 209.35a37.3 37.3 0 1 0 .01-74.6 37.3 37.3 0 0 0-.01 74.6"></path>
    <path fill="#f1896e" d="M100.96 66.29a20.8 20.8 0 1 0 0-41.6 20.8 20.8 0 0 0 0 41.6"></path>
    <path fill="#fbcb41" d="M144.67 44.87a14.8 14.8 0 1 0 0-29.62 14.8 14.8 0 0 0 0 29.62"></path>
  </g>
</svg>
